<svg width="128" height="42" viewBox="0 0 128 42" fill="none" xmlns="http://www.w3.org/2000/svg">
<path d="M40.236 18.068C38.312 16.144 35.426 15 32.252 15H1.5V27H32.252C35.426 27 38.312 25.856 40.236 23.932C42.16 22.008 43.25 19.988 43.25 18.068C43.25 16.148 42.16 14.128 40.236 12.204L40.236 18.068Z" fill="#D82A77"/>
<path d="M32.036 15H1.5V27H32.036C36.956 27 41.252 23.48 41.252 18C41.252 12.52 36.956 9 32.036 9H1.5V15H32.036C34.34 15 35.756 16.36 35.756 18C35.756 19.64 34.34 21 32.036 21H16.256V27H1.5V21H14.756L1.5 21V15H14.756C14.756 15 1.5 15 1.5 15V9H32.036C36.956 9 41.252 12.52 41.252 18C41.252 23.48 36.956 27 32.036 27H1.5V15L32.036 15Z" fill="white"/>
<path d="M49.3379 9.00002L49.3379 19.944C49.3379 24.036 52.3499 27 56.4419 27C60.5339 27 63.5459 24.036 63.5459 19.944L63.5459 9.00002L69.3419 9.00002L69.3419 19.944C69.3419 27.216 63.7619 33 56.4419 33C49.1219 33 43.5419 27.216 43.5419 19.944L43.5419 9.00002L49.3379 9.00002Z" fill="#D82A77"/>
<path d="M126.5 9H114.05L107.03 22.38L100 9H87.5V33H93.5V15.7L101.3 33H112.76L120.5 15.7V33H126.5V9Z" fill="#D82A77"/>
<path d="M78.6539 9.00002L78.6539 33H84.4499V9.00002H78.6539Z" fill="#D82A77"/>
</svg>
