<svg width="100" height="28" viewBox="0 0 100 28" fill="none" xmlns="http://www.w3.org/2000/svg">
<path d="M14.28 27.72C6.44 27.72 0 21.42 0 13.86C0 6.3 6.44 0 14.28 0C22.12 0 28.56 6.3 28.56 13.86C28.56 21.42 22.12 27.72 14.28 27.72ZM14.28 3.78C8.54 3.78 3.92 8.33 3.92 13.86C3.92 19.39 8.54 23.94 14.28 23.94C20.02 23.94 24.64 19.39 24.64 13.86C24.64 8.33 20.02 3.78 14.28 3.78Z" fill="#E3232A"/>
<path d="M17.6533 13.65L12.4733 8.12H8.34326V20.02H11.6333V12.32L15.6933 16.66H17.4433L12.9633 11.9L17.6533 7H13.6633L10.5133 10.36V7H8.34326V8.12L17.6533 18.06V13.65Z" fill="#E3232A"/>
<path d="M37.8938 7H32.0838V27.3H37.8938V7Z" fill="#0055A0"/>
<path d="M50.4938 27.3H44.6838L42.2338 20.3H38.0338V27.3H32.2238V7H42.2338C46.8538 7 50.4938 9.94 50.4938 13.65C50.4938 16.38 48.9538 18.48 46.5038 19.39L50.4938 27.3ZM42.2338 10.15V17.08H43.7738C45.9438 17.08 46.9238 15.61 46.9238 13.58C46.9238 11.62 45.8738 10.15 43.8438 10.15H42.2338Z" fill="#0055A0"/>
<path d="M64.6338 27.3H58.8238L56.3738 20.3H52.1738V27.3H46.3638V7H56.3738C60.9938 7 64.6338 9.94 64.6338 13.65C64.6338 16.38 63.0938 18.48 60.6438 19.39L64.6338 27.3ZM56.3738 10.15V17.08H57.9138C60.0838 17.08 61.0638 15.61 61.0638 13.58C61.0638 11.62 60.0138 10.15 57.9838 10.15H56.3738Z" fill="#0055A0"/>
<path d="M78.9138 27.3V7H71.2138V11.2H67.4338V16.8H71.2138V20.65H78.9138V27.3Z" fill="#0055A0"/>
<path d="M99.3258 7L92.8158 17.15L86.3058 7H79.8258L89.4558 20.3V27.3H96.1858V20.3L105.816 7H99.3258Z" fill="#0055A0"/>
</svg>
