<svg width="121" height="38" viewBox="0 0 121 38" fill="none" xmlns="http://www.w3.org/2000/svg">
<g clip-path="url(#clip0_104_2)">
<path d="M11.666 0H0V11.594H11.666V0Z" fill="#D82A2A"/>
<path d="M25.7682 0H14.1025V11.594H25.7682V0Z" fill="#D82A2A"/>
<path d="M25.7682 25.6885H14.1025V37.2822H25.7682V25.6885Z" fill="#D82A2A"/>
<path d="M11.666 25.6885H0V37.2822H11.666V25.6885Z" fill="#D82A2A"/>
<path d="M12.8848 12.834H25.7686V24.4395H12.8848C12.8848 24.4395 12.8848 18.6367 12.8848 12.834Z" fill="#D82A2A"/>
<path d="M49.0068 37.2822H37.3408V0H49.0068C49.0068 0 49.0068 18.6411 49.0068 37.2822Z" fill="#D82A2A"/>
<path d="M74.1201 1.70117L62.4541 37.2822H71.5913L73.9161 31.4282H85.479L87.8038 37.2822H96.9409L85.2749 1.70117H74.1201ZM84.0955 24.4395H75.2996L79.6975 12.709L84.0955 24.4395Z" fill="#D82A2A"/>
<g filter="url(#filter0_d_104_2)">
<path d="M109.153 1.70117L97.4871 37.2822H106.624L108.949 31.4282H120.512L120.67 37.2822H120.828L109.162 1.70117H109.153ZM119.129 24.4395H110.333L114.731 12.709L119.129 24.4395Z" fill="#D82A2A"/>
</g>
</g>
<defs>
<filter id="filter0_d_104_2" x="97.4871" y="1.70117" width="23.3408" height="35.5811" filterUnits="userSpaceOnUse" color-interpolation-filters="sRGB">
<feFlood flood-opacity="0" result="BackgroundImageFix"/>
<feColorMatrix in="SourceAlpha" type="matrix" values="0 0 0 0 0 0 0 0 0 0 0 0 0 0 0 0 0 0 127 0" result="hardAlpha"/>
<feOffset/>
<feGaussianBlur stdDeviation="2"/>
<feComposite in2="hardAlpha" operator="out"/>
<feColorMatrix type="matrix" values="0 0 0 0 0 0 0 0 0 0 0 0 0 0 0 0 0 0 0.25 0"/>
<feBlend mode="normal" in2="BackgroundImageFix" result="effect1_dropShadow_104_2"/>
<feBlend mode="normal" in="SourceGraphic" in2="effect1_dropShadow_104_2" result="shape"/>
</filter>
<clipPath id="clip0_104_2">
<rect width="120.828" height="37.2822" fill="white"/>
</clipPath>
</defs>
</svg>
