<svg width="100" height="28" viewBox="0 0 100 28" fill="none" xmlns="http://www.w3.org/2000/svg">
<path d="M14 0C6.268 0 0 6.268 0 14C0 21.732 6.268 28 14 28C21.732 28 28 21.732 28 14C28 6.268 21.732 0 14 0ZM14 24.5C8.21 24.5 3.5 19.79 3.5 14C3.5 8.21 8.21 3.5 14 3.5C19.79 3.5 24.5 8.21 24.5 14C24.5 19.79 19.79 24.5 14 24.5Z" fill="#0071BC"/>
<path d="M12.25 10.5V8.75H8.75V7H19.25V8.75H15.75V10.5L18.8125 15.75H21V21H17.5V17.5H10.5V21H7V15.75H9.1875L12.25 10.5ZM14.4375 15.75L12.25 12.25V15.75H14.4375ZM15.75 15.75V12.25L17.9375 15.75H15.75Z" fill="#0071BC"/>
<path d="M42.238 21.35V27.3H36.32V7H42.238V12.95H49.238V7H55.156V27.3H49.238V18.9H42.238V21.35Z" fill="#0071BC"/>
<path d="M63.63 7H57.82V27.3H63.63V7Z" fill="#0071BC"/>
<path d="M78.89 27.3V7H71.19V11.2H67.41V16.8H71.19V20.65H78.89V27.3Z" fill="#0071BC"/>
<path d="M99.302 7L92.792 17.15L86.282 7H79.802L89.432 20.3V27.3H96.162V20.3L105.792 7H99.302Z" fill="#0071BC"/>
</svg>
